<svg id="Capa_1" data-name="Capa 1" xmlns="http://www.w3.org/2000/svg" viewBox="0 0 572.34 318.45"><defs><style>.cls-1{fill:#fff;}.cls-2{font-size:24.78px;fill:#e5d3c6;stroke:#e5d3c6;stroke-miterlimit:10;stroke-width:0.5px;font-family:Kiona-Regular, Kiona Regular;letter-spacing:0.5em;}</style></defs><path class="cls-1" d="M285.1,271.26c0,44.22-22.06,69.93-58.19,69.93-17.63,0-32-4.62-43-15.31l2.31-2.31c7.23,6.93,19.36,11.85,31.21,11.85s23.82-5.78,29.92-16.08c6.39-10.8,6.5-26.63,6.5-48.08V146.12H199.56v-5.78H285.1Z" transform="translate(-110.92 -86.95)"/><path class="cls-1" d="M490.4,317.53l-20.72-35.11-29.17,42.79L454.9,331v2.88H418.44V331l15.35-5.75L466.41,277,424.2,205.28l-9.59-2.88v-2.88h27.82q9.58,0,15.25,4t10.65,12.28l18.42,31.47,26.68-39.14L499,202.4v-2.88h36.46v2.88l-15.35,5.76L490,252.48l33.08,61.15" transform="translate(-110.92 -86.95)"/><path class="cls-1" d="M549,330.45l12-3V239.37l-12-3v-3h26q18,0,18,18v76.07l12,3v3H549Zm16-113.11a14.5,14.5,0,1,1,10,4A13.54,13.54,0,0,1,565,217.34Z" transform="translate(-110.92 -86.95)"/><path class="cls-1" d="M343.53,269.89c.27,37,12.23,59.51,32.26,59.51,11.12,0,23.08-4.72,29.76-11.4l2.22,2.23c-10.29,10.57-24.47,15.85-41.16,15.85-35,0-56.18-25.59-56.18-68.42,0-42.55,21.42-68.14,56.18-68.14,31.15,0,55.07,28.37,55.9,66.2v4.17Zm0-4.17h46.16c-.28-33.66-10-55.19-23.08-55.19S343.8,232.06,343.53,265.72Z" transform="translate(-110.92 -86.95)"/><path class="cls-1" d="M488.1,313.63s28.77,62.29,86.89,65.76v-7.92s-30.06-10.57-51.89-57.84Z" transform="translate(-110.92 -86.95)"/><path class="cls-1" d="M564.33,365.64c12.67,7.74,30.86,5.95,30.86,5.95s37,1.79,63-30.78c0,0,16.69-17.7,17-49.37A83.18,83.18,0,0,0,664.12,250a84.46,84.46,0,0,0-35.39-31.57s-13.52-7.18-33.54-7.23l-20.2-.1v-7.58h20.35S618.61,202,643,217.46a90.66,90.66,0,0,1,29,30.95s11,17.62,11.29,43c0,0,.78,26.85-15.5,49.37,0,0-10,18.38-37.08,31.19a86.21,86.21,0,0,1-35.49,7.38s-19.49.75-27-.69Z" transform="translate(-110.92 -86.95)"/><path class="cls-1" d="M249.47,337.33,240,327.13c-19.4,11.69-52.39-5.87-52.39-5.87s-49.22-23.65-62.72-81.52c0,0-10.38-34.13,9.81-75.93,0,0,12-27.5,41.64-47.12,0,0,28.57-19.47,67.05-18.39,0,0,23.55-1,49.87,12,0,0,20,9.24,31.53,21.71,0,0,11.55,9.47,23.1,30.26,0,0,8.37,12.59,13.05,38.05,0,0,7.53-.76,11.32.13,0,0-3.12-22.24-11.2-37.95,0,0-16.17-41.35-62.83-62.6,0,0-30.81-16.63-72.9-12.19,0,0-29.68,2.28-58.25,21.74,0,0-25.89,16-42.88,49.15,0,0-18.53,34.75-11.82,74.94,0,0,1.21,30.69,28.34,65.13,0,0,23.77,29,53.05,38C193.78,336.65,224.44,346.53,249.47,337.33Z" transform="translate(-110.92 -86.95)"/><text class="cls-2" transform="translate(35.72 312)">DESIGN STUDIO</text></svg>