<svg id="Capa_1" data-name="Capa 1" xmlns="http://www.w3.org/2000/svg" viewBox="0 0 35.38 35.38"><defs><style>.cls-1{fill:#fff;}.cls-2{fill:#010101;}</style></defs><circle class="cls-1" cx="17.69" cy="17.69" r="17.69"/><path class="cls-2" d="M565,932.91a1.22,1.22,0,1,0,1.22,1.21A1.21,1.21,0,0,0,565,932.91Z" transform="translate(-541.83 -921.91)"/><path class="cls-2" d="M559.61,934.47a5.11,5.11,0,1,0,5.11,5.11A5.11,5.11,0,0,0,559.61,934.47Zm0,8.38a3.28,3.28,0,1,1,3.27-3.27A3.27,3.27,0,0,1,559.61,942.85Z" transform="translate(-541.83 -921.91)"/><path class="cls-2" d="M563.66,950h-8.28a6.24,6.24,0,0,1-6.23-6.23v-8.29a6.24,6.24,0,0,1,6.23-6.23h8.28a6.24,6.24,0,0,1,6.23,6.23v8.29A6.24,6.24,0,0,1,563.66,950Zm-8.28-18.79a4.28,4.28,0,0,0-4.28,4.27v8.29a4.28,4.28,0,0,0,4.28,4.28h8.28a4.28,4.28,0,0,0,4.28-4.28v-8.29a4.28,4.28,0,0,0-4.28-4.27Z" transform="translate(-541.83 -921.91)"/></svg>