<svg id="Capa_1" data-name="Capa 1" xmlns="http://www.w3.org/2000/svg" viewBox="0 0 35.38 35.38"><defs><style>.cls-1{fill:#fff;}.cls-2{fill:#010101;}</style></defs><path class="cls-1" d="M513.79,920.45a17.68,17.68,0,0,0-7.22,33.83c0-.5,0-1,0-1.5.06-1.72.27-2.31,2.49-11.63a.63.63,0,0,0,0-.39,6.53,6.53,0,0,1-.17-4.36c1-3.18,4.61-3.43,5.24-.8.39,1.62-.64,3.75-1.43,6.89-.65,2.59,2.4,4.43,5,2.54,2.41-1.75,3.34-5.93,3.16-8.89-.35-5.91-6.82-7.18-10.93-5.28-4.72,2.18-5.79,8-3.66,10.69.27.34.48.54.39.89-.14.53-.26,1.07-.41,1.6a.57.57,0,0,1-.84.38,4.84,4.84,0,0,1-2-1.48c-1.81-2.23-2.33-6.66.06-10.4a12.51,12.51,0,0,1,12.06-5.32c5.37.61,8.76,4.27,9.4,8.44a14.06,14.06,0,0,1-2.58,9.87c-3.06,3.79-8,4.05-10.31,1.72a6.22,6.22,0,0,1-.49-.61l-.07.23c-1.1,4.31-1.22,5.27-2.35,7.27-.17.3-.37.6-.55.89a17.47,17.47,0,0,0,5.25.8,17.69,17.69,0,1,0,0-35.38Z" transform="translate(-496.1 -920.45)"/><path class="cls-2" d="M511.44,946.87l.07-.23a6.22,6.22,0,0,0,.49.61c2.29,2.33,7.25,2.07,10.31-1.72a14.06,14.06,0,0,0,2.58-9.87c-.64-4.17-4-7.83-9.4-8.44a12.51,12.51,0,0,0-12.06,5.32c-2.39,3.74-1.87,8.17-.06,10.4a4.84,4.84,0,0,0,2,1.48.57.57,0,0,0,.84-.38c.15-.53.27-1.07.41-1.6.09-.35-.12-.55-.39-.89-2.13-2.67-1.06-8.51,3.66-10.69,4.11-1.9,10.58-.63,10.93,5.28.18,3-.75,7.14-3.16,8.89-2.6,1.89-5.65.05-5-2.54.79-3.14,1.82-5.27,1.43-6.89-.63-2.63-4.24-2.38-5.24.8a6.53,6.53,0,0,0,.17,4.36.63.63,0,0,1,0,.39c-2.22,9.32-2.43,9.91-2.49,11.63,0,.5,0,1,0,1.5a18.61,18.61,0,0,0,2,.75c.18-.29.38-.59.55-.89C510.22,952.14,510.34,951.18,511.44,946.87Z" transform="translate(-496.1 -920.45)"/></svg>