<svg id="Capa_1" data-name="Capa 1" xmlns="http://www.w3.org/2000/svg" viewBox="0 0 35.38 35.38"><defs><style>.cls-1{fill:#fff;}.cls-2{fill:#010101;}</style></defs><circle class="cls-1" cx="17.69" cy="17.69" r="17.69"/><path class="cls-2" d="M614.45,939a5.07,5.07,0,0,1-.55,0A5.9,5.9,0,0,1,609,936.4v9.1a6.73,6.73,0,1,1-6.73-6.73h0l.41,0v3.32a2.71,2.71,0,0,0-.41,0,3.43,3.43,0,1,0,0,6.86,3.52,3.52,0,0,0,3.57-3.39l0-15.46H609a5.92,5.92,0,0,0,5.45,5.28V939" transform="translate(-587.57 -923.39)"/></svg>